G75*
%MOIN*%
%OFA0B0*%
%FSLAX25Y25*%
%IPPOS*%
%LPD*%
%AMOC8*
5,1,8,0,0,1.08239X$1,22.5*
%
%ADD10C,0.00500*%
%ADD11C,0.00700*%
%ADD12C,0.00600*%
%ADD13C,0.00800*%
%ADD14C,0.00400*%
D10*
X0013200Y0036750D02*
X0012750Y0037200D01*
X0013200Y0036750D02*
X0014101Y0036750D01*
X0014552Y0037200D01*
X0014552Y0037651D01*
X0014101Y0038101D01*
X0013651Y0038101D01*
X0014101Y0038101D02*
X0014552Y0038552D01*
X0014552Y0039002D01*
X0014101Y0039452D01*
X0013200Y0039452D01*
X0012750Y0039002D01*
X0015697Y0039452D02*
X0015697Y0037651D01*
X0016597Y0036750D01*
X0017498Y0037651D01*
X0017498Y0039452D01*
X0018643Y0039002D02*
X0019093Y0039452D01*
X0019994Y0039452D01*
X0020445Y0039002D01*
X0020445Y0038552D01*
X0019994Y0038101D01*
X0020445Y0037651D01*
X0020445Y0037200D01*
X0019994Y0036750D01*
X0019093Y0036750D01*
X0018643Y0037200D01*
X0019544Y0038101D02*
X0019994Y0038101D01*
X0017474Y0046750D02*
X0016473Y0046750D01*
X0015973Y0047250D01*
X0015973Y0047751D01*
X0016473Y0048251D01*
X0017474Y0048251D01*
X0017974Y0047751D01*
X0017974Y0047250D01*
X0017474Y0046750D01*
X0017474Y0048251D02*
X0017974Y0048752D01*
X0017974Y0049252D01*
X0017474Y0049753D01*
X0016473Y0049753D01*
X0015973Y0049252D01*
X0015973Y0048752D01*
X0016473Y0048251D01*
X0014752Y0047250D02*
X0014752Y0049252D01*
X0014251Y0049753D01*
X0012750Y0049753D01*
X0012750Y0046750D01*
X0014251Y0046750D01*
X0014752Y0047250D01*
X0014251Y0056750D02*
X0012750Y0056750D01*
X0012750Y0059753D01*
X0014251Y0059753D01*
X0014752Y0059252D01*
X0014752Y0057250D01*
X0014251Y0056750D01*
X0015973Y0056750D02*
X0015973Y0057250D01*
X0017974Y0059252D01*
X0017974Y0059753D01*
X0015973Y0059753D01*
X0016473Y0066750D02*
X0017474Y0066750D01*
X0017974Y0067250D01*
X0017974Y0067751D01*
X0017474Y0068251D01*
X0015973Y0068251D01*
X0015973Y0067250D01*
X0016473Y0066750D01*
X0015973Y0068251D02*
X0016974Y0069252D01*
X0017974Y0069753D01*
X0014752Y0069252D02*
X0014752Y0067250D01*
X0014251Y0066750D01*
X0012750Y0066750D01*
X0012750Y0069753D01*
X0014251Y0069753D01*
X0014752Y0069252D01*
X0014251Y0076750D02*
X0012750Y0076750D01*
X0012750Y0079753D01*
X0014251Y0079753D01*
X0014752Y0079252D01*
X0014752Y0077250D01*
X0014251Y0076750D01*
X0015973Y0077250D02*
X0016473Y0076750D01*
X0017474Y0076750D01*
X0017974Y0077250D01*
X0017974Y0078251D01*
X0017474Y0078752D01*
X0016974Y0078752D01*
X0015973Y0078251D01*
X0015973Y0079753D01*
X0017974Y0079753D01*
X0017474Y0086750D02*
X0016473Y0086750D01*
X0015973Y0087250D01*
X0017974Y0089252D01*
X0017974Y0087250D01*
X0017474Y0086750D01*
X0015973Y0087250D02*
X0015973Y0089252D01*
X0016473Y0089753D01*
X0017474Y0089753D01*
X0017974Y0089252D01*
X0014752Y0089252D02*
X0014752Y0087250D01*
X0014251Y0086750D01*
X0012750Y0086750D01*
X0012750Y0089753D01*
X0014251Y0089753D01*
X0014752Y0089252D01*
X0014752Y0096750D02*
X0014752Y0098752D01*
X0013751Y0099753D01*
X0012750Y0098752D01*
X0012750Y0096750D01*
X0012750Y0098251D02*
X0014752Y0098251D01*
X0015973Y0097250D02*
X0017974Y0099252D01*
X0017974Y0097250D01*
X0017474Y0096750D01*
X0016473Y0096750D01*
X0015973Y0097250D01*
X0015973Y0099252D01*
X0016473Y0099753D01*
X0017474Y0099753D01*
X0017974Y0099252D01*
X0017048Y0106750D02*
X0016147Y0106750D01*
X0015697Y0107200D01*
X0016147Y0108101D02*
X0015697Y0108552D01*
X0015697Y0109002D01*
X0016147Y0109452D01*
X0017048Y0109452D01*
X0017498Y0109002D01*
X0017048Y0108101D02*
X0016147Y0108101D01*
X0017048Y0108101D02*
X0017498Y0107651D01*
X0017498Y0107200D01*
X0017048Y0106750D01*
X0019544Y0106750D02*
X0019544Y0109452D01*
X0018643Y0109452D02*
X0020445Y0109452D01*
X0014552Y0109002D02*
X0014552Y0108101D01*
X0014101Y0107651D01*
X0012750Y0107651D01*
X0013651Y0107651D02*
X0014552Y0106750D01*
X0012750Y0106750D02*
X0012750Y0109452D01*
X0014101Y0109452D01*
X0014552Y0109002D01*
X0059246Y0100584D02*
X0063750Y0100584D01*
X0059246Y0097581D01*
X0063750Y0097581D01*
X0063750Y0095980D02*
X0060747Y0095980D01*
X0059246Y0094479D01*
X0060747Y0092977D01*
X0063750Y0092977D01*
X0062999Y0091376D02*
X0062249Y0091376D01*
X0061498Y0090625D01*
X0061498Y0089875D01*
X0061498Y0090625D02*
X0060747Y0091376D01*
X0059997Y0091376D01*
X0059246Y0090625D01*
X0059246Y0089124D01*
X0059997Y0088374D01*
X0059997Y0086772D02*
X0062999Y0083770D01*
X0063750Y0084520D01*
X0063750Y0086022D01*
X0062999Y0086772D01*
X0059997Y0086772D01*
X0059246Y0086022D01*
X0059246Y0084520D01*
X0059997Y0083770D01*
X0062999Y0083770D01*
X0062999Y0082168D02*
X0063750Y0081418D01*
X0063750Y0079916D01*
X0062999Y0079166D01*
X0059997Y0082168D01*
X0062999Y0082168D01*
X0059997Y0082168D02*
X0059246Y0081418D01*
X0059246Y0079916D01*
X0059997Y0079166D01*
X0062999Y0079166D01*
X0063750Y0077564D02*
X0063750Y0074562D01*
X0060747Y0077564D01*
X0059997Y0077564D01*
X0059246Y0076814D01*
X0059246Y0075312D01*
X0059997Y0074562D01*
X0059246Y0072960D02*
X0063750Y0072960D01*
X0059246Y0069958D01*
X0063750Y0069958D01*
X0063750Y0068356D02*
X0063750Y0065354D01*
X0059246Y0065354D01*
X0059246Y0063753D02*
X0062999Y0063753D01*
X0063750Y0063002D01*
X0063750Y0061501D01*
X0062999Y0060750D01*
X0059246Y0060750D01*
X0060973Y0048254D02*
X0062474Y0048254D01*
X0061723Y0048254D02*
X0061723Y0043750D01*
X0060973Y0043750D02*
X0062474Y0043750D01*
X0064042Y0044501D02*
X0064793Y0043750D01*
X0066294Y0043750D01*
X0067045Y0044501D01*
X0068646Y0043750D02*
X0071649Y0043750D01*
X0070147Y0043750D02*
X0070147Y0048254D01*
X0068646Y0046753D01*
X0067045Y0047503D02*
X0066294Y0048254D01*
X0064793Y0048254D01*
X0064042Y0047503D01*
X0064042Y0044501D01*
X0084750Y0039452D02*
X0084750Y0038101D01*
X0085651Y0038552D01*
X0086101Y0038552D01*
X0086552Y0038101D01*
X0086552Y0037200D01*
X0086101Y0036750D01*
X0085200Y0036750D01*
X0084750Y0037200D01*
X0084750Y0039452D02*
X0086552Y0039452D01*
X0087697Y0039452D02*
X0087697Y0037651D01*
X0088597Y0036750D01*
X0089498Y0037651D01*
X0089498Y0039452D01*
X0089101Y0046750D02*
X0088200Y0046750D01*
X0087750Y0047200D01*
X0087750Y0049002D01*
X0088200Y0049452D01*
X0089101Y0049452D01*
X0089552Y0049002D01*
X0089552Y0048101D02*
X0088651Y0048101D01*
X0089552Y0048101D02*
X0089552Y0047200D01*
X0089101Y0046750D01*
X0089474Y0056750D02*
X0089474Y0059753D01*
X0087973Y0058251D01*
X0089974Y0058251D01*
X0086752Y0057250D02*
X0086752Y0059252D01*
X0086251Y0059753D01*
X0084750Y0059753D01*
X0084750Y0056750D01*
X0086251Y0056750D01*
X0086752Y0057250D01*
X0086251Y0066750D02*
X0084750Y0066750D01*
X0084750Y0069753D01*
X0086251Y0069753D01*
X0086752Y0069252D01*
X0086752Y0067250D01*
X0086251Y0066750D01*
X0087973Y0067250D02*
X0088473Y0066750D01*
X0089474Y0066750D01*
X0089974Y0067250D01*
X0089974Y0067751D01*
X0089474Y0068251D01*
X0088974Y0068251D01*
X0089474Y0068251D02*
X0089974Y0068752D01*
X0089974Y0069252D01*
X0089474Y0069753D01*
X0088473Y0069753D01*
X0087973Y0069252D01*
X0087973Y0076750D02*
X0089974Y0078752D01*
X0089974Y0079252D01*
X0089474Y0079753D01*
X0088473Y0079753D01*
X0087973Y0079252D01*
X0086752Y0079252D02*
X0086752Y0077250D01*
X0086251Y0076750D01*
X0084750Y0076750D01*
X0084750Y0079753D01*
X0086251Y0079753D01*
X0086752Y0079252D01*
X0087973Y0076750D02*
X0089974Y0076750D01*
X0089974Y0086750D02*
X0087973Y0086750D01*
X0088974Y0086750D02*
X0088974Y0089753D01*
X0087973Y0088752D01*
X0086752Y0089252D02*
X0086752Y0087250D01*
X0086251Y0086750D01*
X0084750Y0086750D01*
X0084750Y0089753D01*
X0086251Y0089753D01*
X0086752Y0089252D01*
X0086752Y0096750D02*
X0085751Y0097751D01*
X0086251Y0097751D02*
X0086752Y0098251D01*
X0086752Y0099252D01*
X0086251Y0099753D01*
X0084750Y0099753D01*
X0084750Y0096750D01*
X0084750Y0097751D02*
X0086251Y0097751D01*
X0087973Y0096750D02*
X0089974Y0099753D01*
X0087973Y0099753D02*
X0089974Y0096750D01*
X0089974Y0106750D02*
X0087973Y0109753D01*
X0086752Y0109753D02*
X0084750Y0109753D01*
X0085751Y0109753D02*
X0085751Y0106750D01*
X0087973Y0106750D02*
X0089974Y0109753D01*
X0063750Y0090625D02*
X0063750Y0089124D01*
X0062999Y0088374D01*
X0063750Y0090625D02*
X0062999Y0091376D01*
X0061498Y0092977D02*
X0061498Y0095980D01*
D11*
X0046531Y0116350D02*
X0045430Y0116350D01*
X0044880Y0116900D01*
X0044880Y0118001D01*
X0045430Y0118552D01*
X0046531Y0118552D01*
X0047081Y0118001D01*
X0047081Y0117451D01*
X0044880Y0117451D01*
X0043398Y0118001D02*
X0043398Y0116350D01*
X0043398Y0118001D02*
X0042848Y0118552D01*
X0041196Y0118552D01*
X0041196Y0116350D01*
X0039842Y0116350D02*
X0038741Y0116350D01*
X0039291Y0116350D02*
X0039291Y0118552D01*
X0038741Y0118552D01*
X0039291Y0119653D02*
X0039291Y0120203D01*
X0036836Y0119653D02*
X0036836Y0116350D01*
X0036286Y0116350D02*
X0037386Y0116350D01*
X0036836Y0119653D02*
X0036286Y0119653D01*
X0034931Y0118552D02*
X0033830Y0118552D01*
X0034381Y0119102D02*
X0034381Y0116900D01*
X0034931Y0116350D01*
X0032349Y0116350D02*
X0032349Y0118552D01*
X0032349Y0116350D02*
X0030697Y0116350D01*
X0030147Y0116900D01*
X0030147Y0118552D01*
X0028666Y0119102D02*
X0028115Y0119653D01*
X0027014Y0119653D01*
X0026464Y0119102D01*
X0026464Y0116900D01*
X0027014Y0116350D01*
X0028115Y0116350D01*
X0028666Y0116900D01*
X0028666Y0119102D01*
X0028919Y0121950D02*
X0030020Y0121950D01*
X0029470Y0121950D02*
X0029470Y0124152D01*
X0028919Y0124152D01*
X0029470Y0125253D02*
X0029470Y0125803D01*
X0031375Y0124152D02*
X0033026Y0124152D01*
X0033577Y0123601D01*
X0033577Y0121950D01*
X0035058Y0121950D02*
X0036159Y0121950D01*
X0035608Y0121950D02*
X0035608Y0124152D01*
X0035058Y0124152D01*
X0035608Y0125253D02*
X0035608Y0125803D01*
X0031375Y0124152D02*
X0031375Y0121950D01*
X0027438Y0121950D02*
X0027438Y0125253D01*
X0026337Y0124152D01*
X0025236Y0125253D01*
X0025236Y0121950D01*
X0021299Y0119653D02*
X0021299Y0116350D01*
X0019648Y0116350D01*
X0019098Y0116900D01*
X0019098Y0118001D01*
X0019648Y0118552D01*
X0021299Y0118552D01*
X0020072Y0121950D02*
X0017870Y0121950D01*
X0018971Y0121950D02*
X0018971Y0125253D01*
X0017870Y0124152D01*
X0016389Y0124702D02*
X0016389Y0122500D01*
X0015838Y0121950D01*
X0014187Y0121950D01*
X0014187Y0125253D01*
X0015838Y0125253D01*
X0016389Y0124702D01*
X0016642Y0119653D02*
X0017193Y0119653D01*
X0017193Y0116350D01*
X0017743Y0116350D02*
X0016642Y0116350D01*
X0015161Y0117451D02*
X0012959Y0117451D01*
X0012959Y0118001D02*
X0013509Y0118552D01*
X0014610Y0118552D01*
X0015161Y0118001D01*
X0015161Y0117451D01*
X0014610Y0116350D02*
X0013509Y0116350D01*
X0012959Y0116900D01*
X0012959Y0118001D01*
X0011604Y0116350D02*
X0010504Y0116350D01*
X0011054Y0116350D02*
X0011054Y0118552D01*
X0010504Y0118552D01*
X0011054Y0119653D02*
X0011054Y0120203D01*
X0009022Y0118001D02*
X0009022Y0116350D01*
X0009022Y0118001D02*
X0008472Y0118552D01*
X0007371Y0118552D01*
X0006820Y0118001D01*
X0006820Y0116350D02*
X0006820Y0119653D01*
X0005339Y0119102D02*
X0004789Y0119653D01*
X0003688Y0119653D01*
X0003137Y0119102D01*
X0003137Y0118552D01*
X0003688Y0118001D01*
X0004789Y0118001D01*
X0005339Y0117451D01*
X0005339Y0116900D01*
X0004789Y0116350D01*
X0003688Y0116350D01*
X0003137Y0116900D01*
D12*
X0004715Y0128100D02*
X0004281Y0128534D01*
X0004281Y0130269D01*
X0004715Y0130702D01*
X0005582Y0130702D01*
X0006016Y0130269D01*
X0007228Y0129835D02*
X0007228Y0128534D01*
X0007662Y0128100D01*
X0008963Y0128100D01*
X0008963Y0129835D01*
X0010174Y0129401D02*
X0010174Y0128534D01*
X0010608Y0128100D01*
X0011475Y0128100D01*
X0011909Y0128967D02*
X0010174Y0128967D01*
X0010174Y0129401D02*
X0010608Y0129835D01*
X0011475Y0129835D01*
X0011909Y0129401D01*
X0011909Y0128967D01*
X0013121Y0129835D02*
X0013988Y0128100D01*
X0014856Y0129835D01*
X0016501Y0129835D02*
X0017369Y0129835D01*
X0017802Y0129401D01*
X0017802Y0128100D01*
X0016501Y0128100D01*
X0016067Y0128534D01*
X0016501Y0128967D01*
X0017802Y0128967D01*
X0019014Y0129401D02*
X0019448Y0129835D01*
X0020749Y0129835D01*
X0020315Y0128967D02*
X0019448Y0128967D01*
X0019014Y0129401D01*
X0019014Y0128100D02*
X0020315Y0128100D01*
X0020749Y0128534D01*
X0020315Y0128967D01*
X0024907Y0128967D02*
X0026208Y0128967D01*
X0026642Y0129401D01*
X0026642Y0130269D01*
X0026208Y0130702D01*
X0024907Y0130702D01*
X0024907Y0128100D01*
X0025774Y0128967D02*
X0026642Y0128100D01*
X0027853Y0128100D02*
X0027853Y0129835D01*
X0028721Y0130702D01*
X0029588Y0129835D01*
X0029588Y0128100D01*
X0029588Y0129401D02*
X0027853Y0129401D01*
X0006016Y0128534D02*
X0005582Y0128100D01*
X0004715Y0128100D01*
X0050000Y0130000D02*
X0073000Y0130000D01*
X0073000Y0050000D01*
X0065500Y0050000D01*
X0065498Y0050126D01*
X0065492Y0050251D01*
X0065482Y0050376D01*
X0065468Y0050501D01*
X0065451Y0050626D01*
X0065429Y0050750D01*
X0065404Y0050873D01*
X0065374Y0050995D01*
X0065341Y0051116D01*
X0065304Y0051236D01*
X0065264Y0051355D01*
X0065219Y0051472D01*
X0065171Y0051589D01*
X0065119Y0051703D01*
X0065064Y0051816D01*
X0065005Y0051927D01*
X0064943Y0052036D01*
X0064877Y0052143D01*
X0064808Y0052248D01*
X0064736Y0052351D01*
X0064661Y0052452D01*
X0064582Y0052550D01*
X0064500Y0052645D01*
X0064416Y0052738D01*
X0064328Y0052828D01*
X0064238Y0052916D01*
X0064145Y0053000D01*
X0064050Y0053082D01*
X0063952Y0053161D01*
X0063851Y0053236D01*
X0063748Y0053308D01*
X0063643Y0053377D01*
X0063536Y0053443D01*
X0063427Y0053505D01*
X0063316Y0053564D01*
X0063203Y0053619D01*
X0063089Y0053671D01*
X0062972Y0053719D01*
X0062855Y0053764D01*
X0062736Y0053804D01*
X0062616Y0053841D01*
X0062495Y0053874D01*
X0062373Y0053904D01*
X0062250Y0053929D01*
X0062126Y0053951D01*
X0062001Y0053968D01*
X0061876Y0053982D01*
X0061751Y0053992D01*
X0061626Y0053998D01*
X0061500Y0054000D01*
X0061374Y0053998D01*
X0061249Y0053992D01*
X0061124Y0053982D01*
X0060999Y0053968D01*
X0060874Y0053951D01*
X0060750Y0053929D01*
X0060627Y0053904D01*
X0060505Y0053874D01*
X0060384Y0053841D01*
X0060264Y0053804D01*
X0060145Y0053764D01*
X0060028Y0053719D01*
X0059911Y0053671D01*
X0059797Y0053619D01*
X0059684Y0053564D01*
X0059573Y0053505D01*
X0059464Y0053443D01*
X0059357Y0053377D01*
X0059252Y0053308D01*
X0059149Y0053236D01*
X0059048Y0053161D01*
X0058950Y0053082D01*
X0058855Y0053000D01*
X0058762Y0052916D01*
X0058672Y0052828D01*
X0058584Y0052738D01*
X0058500Y0052645D01*
X0058418Y0052550D01*
X0058339Y0052452D01*
X0058264Y0052351D01*
X0058192Y0052248D01*
X0058123Y0052143D01*
X0058057Y0052036D01*
X0057995Y0051927D01*
X0057936Y0051816D01*
X0057881Y0051703D01*
X0057829Y0051589D01*
X0057781Y0051472D01*
X0057736Y0051355D01*
X0057696Y0051236D01*
X0057659Y0051116D01*
X0057626Y0050995D01*
X0057596Y0050873D01*
X0057571Y0050750D01*
X0057549Y0050626D01*
X0057532Y0050501D01*
X0057518Y0050376D01*
X0057508Y0050251D01*
X0057502Y0050126D01*
X0057500Y0050000D01*
X0050000Y0050000D01*
X0050000Y0130000D01*
D13*
X0023110Y0027669D02*
X0023110Y0008332D01*
X0026677Y0008895D02*
X0026677Y0027293D01*
X0026679Y0027361D01*
X0026685Y0027430D01*
X0026694Y0027497D01*
X0026708Y0027564D01*
X0026725Y0027631D01*
X0026745Y0027696D01*
X0026770Y0027760D01*
X0026798Y0027822D01*
X0026829Y0027883D01*
X0026864Y0027942D01*
X0026902Y0027999D01*
X0026943Y0028054D01*
X0026987Y0028106D01*
X0027034Y0028156D01*
X0027084Y0028203D01*
X0027136Y0028247D01*
X0027191Y0028288D01*
X0027248Y0028326D01*
X0027307Y0028361D01*
X0027368Y0028392D01*
X0027430Y0028420D01*
X0027494Y0028445D01*
X0027559Y0028465D01*
X0027626Y0028482D01*
X0027693Y0028496D01*
X0027760Y0028505D01*
X0027829Y0028511D01*
X0027897Y0028513D01*
X0085008Y0028513D01*
X0084914Y0032550D02*
X0085054Y0032548D01*
X0085193Y0032542D01*
X0085333Y0032533D01*
X0085472Y0032519D01*
X0085610Y0032502D01*
X0085748Y0032481D01*
X0085886Y0032456D01*
X0086022Y0032427D01*
X0086158Y0032395D01*
X0086293Y0032359D01*
X0086427Y0032319D01*
X0086560Y0032275D01*
X0086691Y0032228D01*
X0086822Y0032177D01*
X0086950Y0032123D01*
X0087077Y0032065D01*
X0087203Y0032004D01*
X0087327Y0031939D01*
X0087449Y0031871D01*
X0087568Y0031799D01*
X0087686Y0031725D01*
X0087802Y0031647D01*
X0087916Y0031565D01*
X0088027Y0031481D01*
X0088136Y0031394D01*
X0088243Y0031304D01*
X0088347Y0031210D01*
X0088449Y0031114D01*
X0088547Y0031016D01*
X0088643Y0030914D01*
X0088737Y0030810D01*
X0088827Y0030703D01*
X0088914Y0030594D01*
X0088998Y0030483D01*
X0089080Y0030369D01*
X0089158Y0030253D01*
X0089232Y0030135D01*
X0089304Y0030016D01*
X0089372Y0029894D01*
X0089437Y0029770D01*
X0089498Y0029644D01*
X0089556Y0029517D01*
X0089610Y0029389D01*
X0089661Y0029258D01*
X0089708Y0029127D01*
X0089752Y0028994D01*
X0089792Y0028860D01*
X0089828Y0028725D01*
X0089860Y0028589D01*
X0089889Y0028453D01*
X0089914Y0028315D01*
X0089935Y0028177D01*
X0089952Y0028039D01*
X0089966Y0027900D01*
X0089975Y0027760D01*
X0089981Y0027621D01*
X0089983Y0027481D01*
X0089983Y0008520D01*
X0086322Y0008802D02*
X0086322Y0027199D01*
X0086320Y0027270D01*
X0086314Y0027341D01*
X0086305Y0027412D01*
X0086291Y0027481D01*
X0086274Y0027551D01*
X0086253Y0027619D01*
X0086229Y0027685D01*
X0086201Y0027751D01*
X0086169Y0027814D01*
X0086134Y0027876D01*
X0086096Y0027936D01*
X0086054Y0027994D01*
X0086009Y0028050D01*
X0085962Y0028103D01*
X0085912Y0028153D01*
X0085859Y0028200D01*
X0085803Y0028245D01*
X0085745Y0028287D01*
X0085685Y0028325D01*
X0085623Y0028360D01*
X0085560Y0028392D01*
X0085494Y0028420D01*
X0085428Y0028444D01*
X0085360Y0028465D01*
X0085290Y0028482D01*
X0085221Y0028496D01*
X0085150Y0028505D01*
X0085079Y0028511D01*
X0085008Y0028513D01*
X0084914Y0032550D02*
X0027991Y0032550D01*
X0027854Y0032548D01*
X0027717Y0032542D01*
X0027581Y0032533D01*
X0027445Y0032519D01*
X0027309Y0032502D01*
X0027173Y0032481D01*
X0027039Y0032456D01*
X0026905Y0032428D01*
X0026772Y0032395D01*
X0026640Y0032359D01*
X0026509Y0032319D01*
X0026379Y0032276D01*
X0026250Y0032229D01*
X0026123Y0032178D01*
X0025997Y0032124D01*
X0025873Y0032067D01*
X0025751Y0032006D01*
X0025630Y0031941D01*
X0025511Y0031873D01*
X0025394Y0031802D01*
X0025279Y0031727D01*
X0025167Y0031650D01*
X0025056Y0031569D01*
X0024948Y0031485D01*
X0024842Y0031398D01*
X0024739Y0031308D01*
X0024638Y0031216D01*
X0024540Y0031120D01*
X0024444Y0031022D01*
X0024352Y0030921D01*
X0024262Y0030818D01*
X0024175Y0030712D01*
X0024091Y0030604D01*
X0024010Y0030493D01*
X0023933Y0030381D01*
X0023858Y0030266D01*
X0023787Y0030149D01*
X0023719Y0030030D01*
X0023654Y0029909D01*
X0023593Y0029787D01*
X0023536Y0029663D01*
X0023482Y0029537D01*
X0023431Y0029410D01*
X0023384Y0029281D01*
X0023341Y0029151D01*
X0023301Y0029020D01*
X0023265Y0028888D01*
X0023232Y0028755D01*
X0023204Y0028621D01*
X0023179Y0028487D01*
X0023158Y0028351D01*
X0023141Y0028215D01*
X0023127Y0028079D01*
X0023118Y0027943D01*
X0023112Y0027806D01*
X0023110Y0027669D01*
X0031558Y0023726D02*
X0081535Y0023726D01*
X0081535Y0011148D01*
X0082004Y0009459D02*
X0082004Y0003451D01*
X0084914Y0003451D01*
X0085008Y0007487D02*
X0082380Y0007487D01*
X0084914Y0003451D02*
X0085054Y0003453D01*
X0085193Y0003459D01*
X0085333Y0003468D01*
X0085472Y0003482D01*
X0085610Y0003499D01*
X0085748Y0003520D01*
X0085886Y0003545D01*
X0086022Y0003574D01*
X0086158Y0003606D01*
X0086293Y0003642D01*
X0086427Y0003682D01*
X0086560Y0003726D01*
X0086691Y0003773D01*
X0086822Y0003824D01*
X0086950Y0003878D01*
X0087077Y0003936D01*
X0087203Y0003997D01*
X0087327Y0004062D01*
X0087448Y0004130D01*
X0087568Y0004202D01*
X0087686Y0004276D01*
X0087802Y0004354D01*
X0087916Y0004436D01*
X0088027Y0004520D01*
X0088136Y0004607D01*
X0088243Y0004697D01*
X0088347Y0004791D01*
X0088449Y0004887D01*
X0088547Y0004985D01*
X0088643Y0005087D01*
X0088737Y0005191D01*
X0088827Y0005298D01*
X0088914Y0005407D01*
X0088998Y0005518D01*
X0089080Y0005632D01*
X0089158Y0005748D01*
X0089232Y0005866D01*
X0089304Y0005985D01*
X0089372Y0006107D01*
X0089437Y0006231D01*
X0089498Y0006357D01*
X0089556Y0006484D01*
X0089610Y0006612D01*
X0089661Y0006743D01*
X0089708Y0006874D01*
X0089752Y0007007D01*
X0089792Y0007141D01*
X0089828Y0007276D01*
X0089860Y0007412D01*
X0089889Y0007548D01*
X0089914Y0007686D01*
X0089935Y0007824D01*
X0089952Y0007962D01*
X0089966Y0008101D01*
X0089975Y0008241D01*
X0089981Y0008380D01*
X0089983Y0008520D01*
X0086322Y0008802D02*
X0086320Y0008731D01*
X0086314Y0008660D01*
X0086305Y0008589D01*
X0086291Y0008520D01*
X0086274Y0008450D01*
X0086253Y0008382D01*
X0086229Y0008316D01*
X0086201Y0008250D01*
X0086169Y0008187D01*
X0086134Y0008125D01*
X0086096Y0008065D01*
X0086054Y0008007D01*
X0086009Y0007951D01*
X0085962Y0007898D01*
X0085912Y0007848D01*
X0085859Y0007801D01*
X0085803Y0007756D01*
X0085745Y0007714D01*
X0085685Y0007676D01*
X0085623Y0007641D01*
X0085560Y0007609D01*
X0085494Y0007581D01*
X0085428Y0007557D01*
X0085360Y0007536D01*
X0085290Y0007519D01*
X0085221Y0007505D01*
X0085150Y0007496D01*
X0085079Y0007490D01*
X0085008Y0007488D01*
X0082004Y0009459D02*
X0082002Y0009549D01*
X0081996Y0009639D01*
X0081986Y0009729D01*
X0081973Y0009818D01*
X0081955Y0009906D01*
X0081934Y0009993D01*
X0081908Y0010080D01*
X0081879Y0010165D01*
X0081847Y0010249D01*
X0081811Y0010332D01*
X0081771Y0010413D01*
X0081727Y0010492D01*
X0081681Y0010569D01*
X0081631Y0010643D01*
X0081577Y0010716D01*
X0081521Y0010786D01*
X0081461Y0010854D01*
X0081399Y0010919D01*
X0081334Y0010981D01*
X0081266Y0011041D01*
X0081196Y0011097D01*
X0081123Y0011151D01*
X0081049Y0011201D01*
X0080972Y0011247D01*
X0080893Y0011291D01*
X0080812Y0011331D01*
X0080729Y0011367D01*
X0080645Y0011399D01*
X0080560Y0011428D01*
X0080473Y0011454D01*
X0080386Y0011475D01*
X0080298Y0011493D01*
X0080209Y0011506D01*
X0080119Y0011516D01*
X0080029Y0011522D01*
X0079939Y0011524D01*
X0033060Y0011524D01*
X0032970Y0011522D01*
X0032880Y0011516D01*
X0032790Y0011506D01*
X0032701Y0011493D01*
X0032613Y0011475D01*
X0032526Y0011454D01*
X0032439Y0011428D01*
X0032354Y0011399D01*
X0032270Y0011367D01*
X0032187Y0011331D01*
X0032106Y0011291D01*
X0032028Y0011247D01*
X0031950Y0011201D01*
X0031876Y0011151D01*
X0031803Y0011097D01*
X0031733Y0011041D01*
X0031665Y0010981D01*
X0031600Y0010919D01*
X0031538Y0010854D01*
X0031478Y0010786D01*
X0031422Y0010716D01*
X0031368Y0010643D01*
X0031318Y0010569D01*
X0031272Y0010492D01*
X0031228Y0010413D01*
X0031188Y0010332D01*
X0031152Y0010249D01*
X0031120Y0010165D01*
X0031091Y0010080D01*
X0031065Y0009993D01*
X0031044Y0009906D01*
X0031026Y0009818D01*
X0031013Y0009729D01*
X0031003Y0009639D01*
X0030997Y0009549D01*
X0030995Y0009459D01*
X0030995Y0003451D01*
X0027991Y0003451D01*
X0028085Y0007487D02*
X0030901Y0007487D01*
X0027991Y0003451D02*
X0027854Y0003453D01*
X0027717Y0003459D01*
X0027581Y0003468D01*
X0027445Y0003482D01*
X0027309Y0003499D01*
X0027173Y0003520D01*
X0027039Y0003545D01*
X0026905Y0003573D01*
X0026772Y0003606D01*
X0026640Y0003642D01*
X0026509Y0003682D01*
X0026379Y0003725D01*
X0026250Y0003772D01*
X0026123Y0003823D01*
X0025997Y0003877D01*
X0025873Y0003934D01*
X0025751Y0003995D01*
X0025630Y0004060D01*
X0025511Y0004128D01*
X0025394Y0004199D01*
X0025279Y0004274D01*
X0025167Y0004351D01*
X0025056Y0004432D01*
X0024948Y0004516D01*
X0024842Y0004603D01*
X0024739Y0004693D01*
X0024638Y0004785D01*
X0024540Y0004881D01*
X0024444Y0004979D01*
X0024352Y0005080D01*
X0024262Y0005183D01*
X0024175Y0005289D01*
X0024091Y0005397D01*
X0024010Y0005508D01*
X0023933Y0005620D01*
X0023858Y0005735D01*
X0023787Y0005852D01*
X0023719Y0005971D01*
X0023654Y0006092D01*
X0023593Y0006214D01*
X0023536Y0006338D01*
X0023482Y0006464D01*
X0023431Y0006591D01*
X0023384Y0006720D01*
X0023341Y0006850D01*
X0023301Y0006981D01*
X0023265Y0007113D01*
X0023232Y0007246D01*
X0023204Y0007380D01*
X0023179Y0007514D01*
X0023158Y0007650D01*
X0023141Y0007786D01*
X0023127Y0007922D01*
X0023118Y0008058D01*
X0023112Y0008195D01*
X0023110Y0008332D01*
X0026677Y0008895D02*
X0026679Y0008821D01*
X0026685Y0008748D01*
X0026694Y0008675D01*
X0026708Y0008602D01*
X0026725Y0008531D01*
X0026746Y0008460D01*
X0026771Y0008390D01*
X0026799Y0008322D01*
X0026830Y0008256D01*
X0026866Y0008191D01*
X0026904Y0008128D01*
X0026946Y0008067D01*
X0026991Y0008009D01*
X0027039Y0007953D01*
X0027089Y0007899D01*
X0027143Y0007849D01*
X0027199Y0007801D01*
X0027257Y0007756D01*
X0027318Y0007714D01*
X0027381Y0007676D01*
X0027446Y0007640D01*
X0027512Y0007609D01*
X0027580Y0007581D01*
X0027650Y0007556D01*
X0027721Y0007535D01*
X0027792Y0007518D01*
X0027865Y0007504D01*
X0027938Y0007495D01*
X0028011Y0007489D01*
X0028085Y0007487D01*
X0031558Y0011242D02*
X0031558Y0023726D01*
X0042795Y0028795D02*
X0042795Y0032362D01*
X0044767Y0032268D02*
X0044767Y0030391D01*
X0068139Y0030391D01*
X0068139Y0032456D01*
X0070110Y0032268D02*
X0070110Y0028795D01*
X0069547Y0028889D02*
X0068233Y0030297D01*
X0091500Y0035500D02*
X0091500Y0040500D01*
X0094000Y0043000D01*
X0091500Y0045500D01*
X0091500Y0050500D01*
X0094000Y0053000D01*
X0091500Y0055500D01*
X0091500Y0060500D01*
X0094000Y0063000D01*
X0091500Y0065500D01*
X0091500Y0070500D01*
X0094000Y0073000D01*
X0091500Y0075500D01*
X0091500Y0080500D01*
X0094000Y0083000D01*
X0091500Y0085500D01*
X0091500Y0090500D01*
X0094000Y0093000D01*
X0091500Y0095500D01*
X0091500Y0100500D01*
X0094000Y0103000D01*
X0091500Y0105500D01*
X0091500Y0110500D01*
X0094000Y0113000D01*
X0099000Y0113000D01*
X0101500Y0110500D01*
X0101500Y0105500D01*
X0099000Y0103000D01*
X0101500Y0100500D01*
X0101500Y0095500D01*
X0099000Y0093000D01*
X0101500Y0090500D01*
X0101500Y0085500D01*
X0099000Y0083000D01*
X0101500Y0080500D01*
X0101500Y0075500D01*
X0099000Y0073000D01*
X0101500Y0070500D01*
X0101500Y0065500D01*
X0099000Y0063000D01*
X0101500Y0060500D01*
X0101500Y0055500D01*
X0099000Y0053000D01*
X0101500Y0050500D01*
X0101500Y0045500D01*
X0099000Y0043000D01*
X0101500Y0040500D01*
X0101500Y0035500D01*
X0099000Y0033000D01*
X0094000Y0033000D01*
X0091500Y0035500D01*
X0044672Y0030297D02*
X0043171Y0028795D01*
X0011500Y0035500D02*
X0009000Y0033000D01*
X0004000Y0033000D01*
X0001500Y0035500D01*
X0001500Y0040500D01*
X0004000Y0043000D01*
X0001500Y0045500D01*
X0001500Y0050500D01*
X0004000Y0053000D01*
X0001500Y0055500D01*
X0001500Y0060500D01*
X0004000Y0063000D01*
X0001500Y0065500D01*
X0001500Y0070500D01*
X0004000Y0073000D01*
X0001500Y0075500D01*
X0001500Y0080500D01*
X0004000Y0083000D01*
X0001500Y0085500D01*
X0001500Y0090500D01*
X0004000Y0093000D01*
X0001500Y0095500D01*
X0001500Y0100500D01*
X0004000Y0103000D01*
X0001500Y0105500D01*
X0001500Y0110500D01*
X0004000Y0113000D01*
X0009000Y0113000D01*
X0011500Y0110500D01*
X0011500Y0105500D01*
X0009000Y0103000D01*
X0011500Y0100500D01*
X0011500Y0095500D01*
X0009000Y0093000D01*
X0011500Y0090500D01*
X0011500Y0085500D01*
X0009000Y0083000D01*
X0011500Y0080500D01*
X0011500Y0075500D01*
X0009000Y0073000D01*
X0011500Y0070500D01*
X0011500Y0065500D01*
X0009000Y0063000D01*
X0011500Y0060500D01*
X0011500Y0055500D01*
X0009000Y0053000D01*
X0011500Y0050500D01*
X0011500Y0045500D01*
X0009000Y0043000D01*
X0011500Y0040500D01*
X0011500Y0035500D01*
D14*
X0036700Y0007804D02*
X0039769Y0003200D01*
X0041304Y0003200D02*
X0044373Y0003200D01*
X0042839Y0003200D02*
X0042839Y0007804D01*
X0041304Y0006269D01*
X0039769Y0007804D02*
X0036700Y0003200D01*
X0041700Y0035700D02*
X0041700Y0040304D01*
X0043235Y0038769D01*
X0044769Y0040304D01*
X0044769Y0035700D01*
X0046304Y0035700D02*
X0046304Y0040304D01*
X0047071Y0038002D02*
X0049373Y0035700D01*
X0050908Y0036467D02*
X0051675Y0035700D01*
X0053210Y0035700D01*
X0053977Y0036467D01*
X0053977Y0037235D01*
X0053210Y0038002D01*
X0051675Y0038002D01*
X0050908Y0038769D01*
X0050908Y0039537D01*
X0051675Y0040304D01*
X0053210Y0040304D01*
X0053977Y0039537D01*
X0055512Y0038769D02*
X0057046Y0040304D01*
X0057046Y0035700D01*
X0055512Y0035700D02*
X0058581Y0035700D01*
X0060116Y0036467D02*
X0060883Y0035700D01*
X0062418Y0035700D01*
X0063185Y0036467D01*
X0063185Y0037235D01*
X0062418Y0038002D01*
X0060883Y0038002D01*
X0060116Y0038769D01*
X0060116Y0039537D01*
X0060883Y0040304D01*
X0062418Y0040304D01*
X0063185Y0039537D01*
X0063185Y0038769D01*
X0062418Y0038002D01*
X0060883Y0038002D02*
X0060116Y0037235D01*
X0060116Y0036467D01*
X0064720Y0036467D02*
X0065487Y0035700D01*
X0067022Y0035700D01*
X0067789Y0036467D01*
X0067789Y0038002D01*
X0067022Y0038769D01*
X0066254Y0038769D01*
X0064720Y0038002D01*
X0064720Y0040304D01*
X0067789Y0040304D01*
X0069324Y0040304D02*
X0069324Y0038002D01*
X0070858Y0038769D01*
X0071626Y0038769D01*
X0072393Y0038002D01*
X0072393Y0036467D01*
X0071626Y0035700D01*
X0070091Y0035700D01*
X0069324Y0036467D01*
X0069324Y0040304D02*
X0072393Y0040304D01*
X0073927Y0038002D02*
X0076997Y0038002D01*
X0078531Y0038002D02*
X0078531Y0036467D01*
X0079299Y0035700D01*
X0080833Y0035700D01*
X0081601Y0036467D01*
X0081601Y0037235D01*
X0080833Y0038002D01*
X0078531Y0038002D01*
X0080066Y0039537D01*
X0081601Y0040304D01*
X0083135Y0038002D02*
X0086205Y0038002D01*
X0087739Y0036467D02*
X0087739Y0039537D01*
X0088507Y0040304D01*
X0090041Y0040304D01*
X0090809Y0039537D01*
X0087739Y0036467D01*
X0088507Y0035700D01*
X0090041Y0035700D01*
X0090809Y0036467D01*
X0090809Y0039537D01*
X0092343Y0038002D02*
X0095412Y0038002D01*
X0096947Y0038002D02*
X0096947Y0040304D01*
X0100016Y0040304D01*
X0099249Y0038769D02*
X0100016Y0038002D01*
X0100016Y0036467D01*
X0099249Y0035700D01*
X0097714Y0035700D01*
X0096947Y0036467D01*
X0096947Y0038002D02*
X0098482Y0038769D01*
X0099249Y0038769D01*
X0101551Y0039537D02*
X0101551Y0036467D01*
X0104620Y0039537D01*
X0104620Y0036467D01*
X0103853Y0035700D01*
X0102318Y0035700D01*
X0101551Y0036467D01*
X0101551Y0039537D02*
X0102318Y0040304D01*
X0103853Y0040304D01*
X0104620Y0039537D01*
X0106155Y0040304D02*
X0106155Y0038002D01*
X0107690Y0038769D01*
X0108457Y0038769D01*
X0109224Y0038002D01*
X0109224Y0036467D01*
X0108457Y0035700D01*
X0106922Y0035700D01*
X0106155Y0036467D01*
X0106155Y0040304D02*
X0109224Y0040304D01*
X0049373Y0040304D02*
X0046304Y0037235D01*
M02*
